# xmcd
#
# Track frame offsets:
#	150
#	13047
#	33872
#	56424
#	71599
#	101417
#	130796
#	152665
#	172417
#	187333
#
# Disc length: 2791 seconds
#
# Revision: 0
# Processed by: cddbd v1.5.1PL2 Copyright (c) Steve Scherf et al.
# Submitted via: EasyCDDAExtractor 9.1.0.1
#
DISCID=860ae50a
DTITLE=John Lee Hooker - Mr. Lucky
DYEAR=1991
DGENRE=Blues
TTITLE0=I Want To Hug You
TTITLE1=Mr. Lucky
TTITLE2=Backstabbers
TTITLE3=This Is Hip
TTITLE4=I Cover The Waterfront
TTITLE5=Highway 13
TTITLE6=Stripped Me Naked
TTITLE7=Susie
TTITLE8=Crawlin' Kingsnake
TTITLE9=Father Was A Jockey
EXTD=
EXTT0=
EXTT1=
EXTT2=
EXTT3=
EXTT4=
EXTT5=
EXTT6=
EXTT7=
EXTT8=
EXTT9=
PLAYORDER=
